<mxfile host="app.diagrams.net" agent="Mozilla/5.0 (Macintosh; Intel Mac OS X 10_15_7) AppleWebKit/537.36 (KHTML, like Gecko) Chrome/126.0.0.0 Safari/537.36" version="24.7.16">
  <diagram name="Page-1" id="jOguNta5ay8SF34kS6EO">
    <mxGraphModel dx="607" dy="784" grid="1" gridSize="10" guides="1" tooltips="1" connect="1" arrows="1" fold="1" page="1" pageScale="1" pageWidth="850" pageHeight="1100" math="0" shadow="0">
      <root>
        <mxCell id="0" />
        <mxCell id="1" parent="0" />
        <mxCell id="NZKE09MTLLeni8Bkx__W-10" value="EventManager" style="html=1;whiteSpace=wrap;" vertex="1" parent="1">
          <mxGeometry x="90" y="250" width="650" height="50" as="geometry" />
        </mxCell>
        <mxCell id="NZKE09MTLLeni8Bkx__W-11" value="Output Manager" style="html=1;whiteSpace=wrap;" vertex="1" parent="1">
          <mxGeometry x="220" y="150" width="110" height="50" as="geometry" />
        </mxCell>
        <mxCell id="NZKE09MTLLeni8Bkx__W-13" value="Drawing Component" style="html=1;whiteSpace=wrap;" vertex="1" parent="1">
          <mxGeometry x="620" y="340" width="110" height="50" as="geometry" />
        </mxCell>
        <mxCell id="NZKE09MTLLeni8Bkx__W-17" value="Game State Manager" style="html=1;whiteSpace=wrap;" vertex="1" parent="1">
          <mxGeometry x="435" y="340" width="110" height="50" as="geometry" />
        </mxCell>
        <mxCell id="NZKE09MTLLeni8Bkx__W-34" value="&lt;div&gt;&amp;lt;&amp;lt;ActionLIstener&amp;gt;&amp;gt;&lt;/div&gt;EventManager" style="swimlane;fontStyle=1;align=center;verticalAlign=top;childLayout=stackLayout;horizontal=1;startSize=40;horizontalStack=0;resizeParent=1;resizeParentMax=0;resizeLast=0;collapsible=1;marginBottom=0;whiteSpace=wrap;html=1;" vertex="1" parent="1">
          <mxGeometry x="290" y="1100" width="480" height="140" as="geometry" />
        </mxCell>
        <mxCell id="NZKE09MTLLeni8Bkx__W-35" value="# outputManager: OutPutManager&lt;div&gt;# gameStateManager: GameStateManager&lt;/div&gt;&lt;div&gt;# draw: Draw&lt;/div&gt;" style="text;strokeColor=none;fillColor=none;align=left;verticalAlign=top;spacingLeft=4;spacingRight=4;overflow=hidden;rotatable=0;points=[[0,0.5],[1,0.5]];portConstraint=eastwest;whiteSpace=wrap;html=1;" vertex="1" parent="NZKE09MTLLeni8Bkx__W-34">
          <mxGeometry y="40" width="480" height="50" as="geometry" />
        </mxCell>
        <mxCell id="NZKE09MTLLeni8Bkx__W-36" value="" style="line;strokeWidth=1;fillColor=none;align=left;verticalAlign=middle;spacingTop=-1;spacingLeft=3;spacingRight=3;rotatable=0;labelPosition=right;points=[];portConstraint=eastwest;strokeColor=inherit;" vertex="1" parent="NZKE09MTLLeni8Bkx__W-34">
          <mxGeometry y="90" width="480" height="8" as="geometry" />
        </mxCell>
        <mxCell id="NZKE09MTLLeni8Bkx__W-37" value="&lt;div&gt;&lt;span style=&quot;background-color: initial;&quot;&gt;+ EventManager()&lt;/span&gt;&lt;/div&gt;&lt;span style=&quot;background-color: initial;&quot;&gt;+ actionPerformed(ActionEvent event): void&lt;/span&gt;" style="text;strokeColor=none;fillColor=none;align=left;verticalAlign=top;spacingLeft=4;spacingRight=4;overflow=hidden;rotatable=0;points=[[0,0.5],[1,0.5]];portConstraint=eastwest;whiteSpace=wrap;html=1;" vertex="1" parent="NZKE09MTLLeni8Bkx__W-34">
          <mxGeometry y="98" width="480" height="42" as="geometry" />
        </mxCell>
        <mxCell id="NZKE09MTLLeni8Bkx__W-38" value="&lt;div&gt;&lt;span style=&quot;background-color: initial;&quot;&gt;IntellijUserInterface&lt;/span&gt;&lt;br&gt;&lt;/div&gt;" style="swimlane;fontStyle=1;align=center;verticalAlign=top;childLayout=stackLayout;horizontal=1;startSize=26;horizontalStack=0;resizeParent=1;resizeParentMax=0;resizeLast=0;collapsible=1;marginBottom=0;whiteSpace=wrap;html=1;" vertex="1" parent="1">
          <mxGeometry x="290" y="590" width="280" height="450" as="geometry" />
        </mxCell>
        <mxCell id="NZKE09MTLLeni8Bkx__W-39" value="- MainWindow: JPanel&lt;div&gt;&lt;div&gt;&lt;div&gt;- FirstRow: JPanel&lt;/div&gt;&lt;div&gt;- SecondRow: JPanel&lt;/div&gt;&lt;div&gt;- ThirdRow: JPanel&lt;/div&gt;&lt;div&gt;- aButton: JButton&lt;/div&gt;&lt;div&gt;...&lt;/div&gt;&lt;div&gt;- zButton: JButton&lt;/div&gt;&lt;div&gt;- GuessHolder: JPanel&lt;/div&gt;&lt;div&gt;- BigText: JLabel&lt;br&gt;- CategoryText: JLabel&lt;/div&gt;&lt;div&gt;- IncorrectGuessesText: JLabel&lt;/div&gt;&lt;div&gt;- HangManHolder: JPanel&lt;/div&gt;&lt;div&gt;- HangManImage: JLabel&lt;/div&gt;&lt;/div&gt;&lt;/div&gt;&lt;div&gt;# manager: EventManager&lt;/div&gt;" style="text;strokeColor=none;fillColor=none;align=left;verticalAlign=top;spacingLeft=4;spacingRight=4;overflow=hidden;rotatable=0;points=[[0,0.5],[1,0.5]];portConstraint=eastwest;whiteSpace=wrap;html=1;" vertex="1" parent="NZKE09MTLLeni8Bkx__W-38">
          <mxGeometry y="26" width="280" height="214" as="geometry" />
        </mxCell>
        <mxCell id="NZKE09MTLLeni8Bkx__W-40" value="" style="line;strokeWidth=1;fillColor=none;align=left;verticalAlign=middle;spacingTop=-1;spacingLeft=3;spacingRight=3;rotatable=0;labelPosition=right;points=[];portConstraint=eastwest;strokeColor=inherit;" vertex="1" parent="NZKE09MTLLeni8Bkx__W-38">
          <mxGeometry y="240" width="280" height="8" as="geometry" />
        </mxCell>
        <mxCell id="NZKE09MTLLeni8Bkx__W-41" value="+ IntellijUserInterface()&lt;div&gt;- setupButtons(): void&lt;/div&gt;&lt;div&gt;- setupInitialConditions(): void&lt;/div&gt;&lt;div&gt;# disableLetterButton(char theLetter): void&lt;/div&gt;&lt;div&gt;# resetLetterButtons(): void&lt;/div&gt;&lt;div&gt;# changeBigTextDisplay(String word): void&lt;/div&gt;&lt;div&gt;# changeCategoryTextDisplay(String category): void&lt;/div&gt;&lt;div&gt;# changeIncorrectGuessesTextDisplay(int remainingGuesses): void&lt;/div&gt;&lt;div&gt;# changeHangmanImage(URL hangmanImage): void&lt;/div&gt;&lt;div&gt;+ main(String[] args): void&lt;/div&gt;" style="text;strokeColor=none;fillColor=none;align=left;verticalAlign=top;spacingLeft=4;spacingRight=4;overflow=hidden;rotatable=0;points=[[0,0.5],[1,0.5]];portConstraint=eastwest;whiteSpace=wrap;html=1;" vertex="1" parent="NZKE09MTLLeni8Bkx__W-38">
          <mxGeometry y="248" width="280" height="202" as="geometry" />
        </mxCell>
        <mxCell id="NZKE09MTLLeni8Bkx__W-42" value="OutputManager" style="swimlane;fontStyle=1;align=center;verticalAlign=top;childLayout=stackLayout;horizontal=1;startSize=26;horizontalStack=0;resizeParent=1;resizeParentMax=0;resizeLast=0;collapsible=1;marginBottom=0;whiteSpace=wrap;html=1;" vertex="1" parent="1">
          <mxGeometry x="610" y="662" width="160" height="86" as="geometry" />
        </mxCell>
        <mxCell id="NZKE09MTLLeni8Bkx__W-43" value="+ field: type" style="text;strokeColor=none;fillColor=none;align=left;verticalAlign=top;spacingLeft=4;spacingRight=4;overflow=hidden;rotatable=0;points=[[0,0.5],[1,0.5]];portConstraint=eastwest;whiteSpace=wrap;html=1;" vertex="1" parent="NZKE09MTLLeni8Bkx__W-42">
          <mxGeometry y="26" width="160" height="26" as="geometry" />
        </mxCell>
        <mxCell id="NZKE09MTLLeni8Bkx__W-44" value="" style="line;strokeWidth=1;fillColor=none;align=left;verticalAlign=middle;spacingTop=-1;spacingLeft=3;spacingRight=3;rotatable=0;labelPosition=right;points=[];portConstraint=eastwest;strokeColor=inherit;" vertex="1" parent="NZKE09MTLLeni8Bkx__W-42">
          <mxGeometry y="52" width="160" height="8" as="geometry" />
        </mxCell>
        <mxCell id="NZKE09MTLLeni8Bkx__W-45" value="+ method(type): type" style="text;strokeColor=none;fillColor=none;align=left;verticalAlign=top;spacingLeft=4;spacingRight=4;overflow=hidden;rotatable=0;points=[[0,0.5],[1,0.5]];portConstraint=eastwest;whiteSpace=wrap;html=1;" vertex="1" parent="NZKE09MTLLeni8Bkx__W-42">
          <mxGeometry y="60" width="160" height="26" as="geometry" />
        </mxCell>
        <mxCell id="NZKE09MTLLeni8Bkx__W-46" value="Draw" style="swimlane;fontStyle=1;align=center;verticalAlign=top;childLayout=stackLayout;horizontal=1;startSize=26;horizontalStack=0;resizeParent=1;resizeParentMax=0;resizeLast=0;collapsible=1;marginBottom=0;whiteSpace=wrap;html=1;" vertex="1" parent="1">
          <mxGeometry x="540" y="1300" width="200" height="90" as="geometry" />
        </mxCell>
        <mxCell id="NZKE09MTLLeni8Bkx__W-48" value="" style="line;strokeWidth=1;fillColor=none;align=left;verticalAlign=middle;spacingTop=-1;spacingLeft=3;spacingRight=3;rotatable=0;labelPosition=right;points=[];portConstraint=eastwest;strokeColor=inherit;" vertex="1" parent="NZKE09MTLLeni8Bkx__W-46">
          <mxGeometry y="26" width="200" height="8" as="geometry" />
        </mxCell>
        <mxCell id="NZKE09MTLLeni8Bkx__W-49" value="+ drawNextPart(int remainingGuesses): java.net.URL&lt;div&gt;+ resetDrawing(): java.net.URL&lt;/div&gt;" style="text;strokeColor=none;fillColor=none;align=left;verticalAlign=top;spacingLeft=4;spacingRight=4;overflow=hidden;rotatable=0;points=[[0,0.5],[1,0.5]];portConstraint=eastwest;whiteSpace=wrap;html=1;" vertex="1" parent="NZKE09MTLLeni8Bkx__W-46">
          <mxGeometry y="34" width="200" height="56" as="geometry" />
        </mxCell>
        <mxCell id="NZKE09MTLLeni8Bkx__W-50" value="GameStateManager" style="swimlane;fontStyle=1;align=center;verticalAlign=top;childLayout=stackLayout;horizontal=1;startSize=26;horizontalStack=0;resizeParent=1;resizeParentMax=0;resizeLast=0;collapsible=1;marginBottom=0;whiteSpace=wrap;html=1;" vertex="1" parent="1">
          <mxGeometry x="290" y="1300" width="190" height="210" as="geometry" />
        </mxCell>
        <mxCell id="NZKE09MTLLeni8Bkx__W-51" value="- remainingGuesses: int&lt;div&gt;- wordToGuess: String&lt;/div&gt;&lt;div&gt;- isGameOver: boolean&lt;/div&gt;" style="text;strokeColor=none;fillColor=none;align=left;verticalAlign=top;spacingLeft=4;spacingRight=4;overflow=hidden;rotatable=0;points=[[0,0.5],[1,0.5]];portConstraint=eastwest;whiteSpace=wrap;html=1;" vertex="1" parent="NZKE09MTLLeni8Bkx__W-50">
          <mxGeometry y="26" width="190" height="54" as="geometry" />
        </mxCell>
        <mxCell id="NZKE09MTLLeni8Bkx__W-52" value="" style="line;strokeWidth=1;fillColor=none;align=left;verticalAlign=middle;spacingTop=-1;spacingLeft=3;spacingRight=3;rotatable=0;labelPosition=right;points=[];portConstraint=eastwest;strokeColor=inherit;" vertex="1" parent="NZKE09MTLLeni8Bkx__W-50">
          <mxGeometry y="80" width="190" height="8" as="geometry" />
        </mxCell>
        <mxCell id="NZKE09MTLLeni8Bkx__W-53" value="+ GameStateManager()&lt;div&gt;+ initiate(): void&lt;/div&gt;&lt;div&gt;+ nextWord: void&lt;/div&gt;&lt;div&gt;+ guessLetter: boolean&lt;/div&gt;&lt;div&gt;+ checkGameStatus(): boolean&lt;/div&gt;&lt;div&gt;+ getWordToGuess(): String&lt;/div&gt;&lt;div&gt;+ getRemainingGuesses(): int&lt;/div&gt;" style="text;strokeColor=none;fillColor=none;align=left;verticalAlign=top;spacingLeft=4;spacingRight=4;overflow=hidden;rotatable=0;points=[[0,0.5],[1,0.5]];portConstraint=eastwest;whiteSpace=wrap;html=1;" vertex="1" parent="NZKE09MTLLeni8Bkx__W-50">
          <mxGeometry y="88" width="190" height="122" as="geometry" />
        </mxCell>
        <mxCell id="NZKE09MTLLeni8Bkx__W-58" value="WordManager" style="swimlane;fontStyle=1;align=center;verticalAlign=top;childLayout=stackLayout;horizontal=1;startSize=26;horizontalStack=0;resizeParent=1;resizeParentMax=0;resizeLast=0;collapsible=1;marginBottom=0;whiteSpace=wrap;html=1;" vertex="1" parent="1">
          <mxGeometry x="290" y="1540" width="190" height="240" as="geometry" />
        </mxCell>
        <mxCell id="NZKE09MTLLeni8Bkx__W-59" value="- currentWordNum: int&lt;div&gt;- currentLevelNum: int&lt;/div&gt;&lt;div&gt;- levelCategories:&amp;nbsp;&lt;span style=&quot;background-color: initial;&quot;&gt;List&amp;lt;String&amp;gt;&lt;/span&gt;&lt;/div&gt;&lt;div&gt;- numPerCategory:&amp;nbsp;&lt;span style=&quot;background-color: initial;&quot;&gt;List&amp;lt;int&amp;gt;&lt;/span&gt;&lt;/div&gt;&lt;div&gt;- animals:&amp;nbsp;&lt;span style=&quot;background-color: initial;&quot;&gt;List&amp;lt;String&amp;gt;&lt;/span&gt;&lt;/div&gt;&lt;div&gt;- countries: List&amp;lt;String&amp;gt;&lt;/div&gt;" style="text;strokeColor=none;fillColor=none;align=left;verticalAlign=top;spacingLeft=4;spacingRight=4;overflow=hidden;rotatable=0;points=[[0,0.5],[1,0.5]];portConstraint=eastwest;whiteSpace=wrap;html=1;" vertex="1" parent="NZKE09MTLLeni8Bkx__W-58">
          <mxGeometry y="26" width="190" height="104" as="geometry" />
        </mxCell>
        <mxCell id="NZKE09MTLLeni8Bkx__W-60" value="" style="line;strokeWidth=1;fillColor=none;align=left;verticalAlign=middle;spacingTop=-1;spacingLeft=3;spacingRight=3;rotatable=0;labelPosition=right;points=[];portConstraint=eastwest;strokeColor=inherit;" vertex="1" parent="NZKE09MTLLeni8Bkx__W-58">
          <mxGeometry y="130" width="190" height="8" as="geometry" />
        </mxCell>
        <mxCell id="NZKE09MTLLeni8Bkx__W-61" value="+ WordManager()&lt;div&gt;+ getFirstWord(): String&lt;/div&gt;&lt;div&gt;+ getNextWord(): String&lt;/div&gt;&lt;div&gt;+ isNextLevelUp(): boolean&lt;/div&gt;&lt;div&gt;+ reset(): void&lt;/div&gt;&lt;div&gt;+ getLevelCategory(): String&lt;/div&gt;" style="text;strokeColor=none;fillColor=none;align=left;verticalAlign=top;spacingLeft=4;spacingRight=4;overflow=hidden;rotatable=0;points=[[0,0.5],[1,0.5]];portConstraint=eastwest;whiteSpace=wrap;html=1;" vertex="1" parent="NZKE09MTLLeni8Bkx__W-58">
          <mxGeometry y="138" width="190" height="102" as="geometry" />
        </mxCell>
        <mxCell id="NZKE09MTLLeni8Bkx__W-62" value="GuessWordDisplay" style="swimlane;fontStyle=1;align=center;verticalAlign=top;childLayout=stackLayout;horizontal=1;startSize=26;horizontalStack=0;resizeParent=1;resizeParentMax=0;resizeLast=0;collapsible=1;marginBottom=0;whiteSpace=wrap;html=1;" vertex="1" parent="1">
          <mxGeometry x="540" y="1540" width="210" height="210" as="geometry" />
        </mxCell>
        <mxCell id="NZKE09MTLLeni8Bkx__W-63" value="guessWord: String&lt;div&gt;guessWordDisplay: StringBuilder&lt;/div&gt;&lt;div&gt;lengthOfWord: int&lt;/div&gt;&lt;div&gt;unguessedLetters: List&amp;lt;Character&amp;gt;&lt;/div&gt;&lt;div&gt;guessedLetters: List&amp;lt;Character&amp;gt;&lt;/div&gt;" style="text;strokeColor=none;fillColor=none;align=left;verticalAlign=top;spacingLeft=4;spacingRight=4;overflow=hidden;rotatable=0;points=[[0,0.5],[1,0.5]];portConstraint=eastwest;whiteSpace=wrap;html=1;" vertex="1" parent="NZKE09MTLLeni8Bkx__W-62">
          <mxGeometry y="26" width="210" height="84" as="geometry" />
        </mxCell>
        <mxCell id="NZKE09MTLLeni8Bkx__W-64" value="" style="line;strokeWidth=1;fillColor=none;align=left;verticalAlign=middle;spacingTop=-1;spacingLeft=3;spacingRight=3;rotatable=0;labelPosition=right;points=[];portConstraint=eastwest;strokeColor=inherit;" vertex="1" parent="NZKE09MTLLeni8Bkx__W-62">
          <mxGeometry y="110" width="210" height="8" as="geometry" />
        </mxCell>
        <mxCell id="NZKE09MTLLeni8Bkx__W-65" value="+ GuessWordDisplay()&lt;div&gt;+ handleGuess(char letter): boolean&lt;/div&gt;&lt;div&gt;+ revealLetter(char letter): void&lt;/div&gt;&lt;div&gt;+ getGuessWordDisplay(): String&lt;/div&gt;&lt;div&gt;+ isWordGuessed(): boolean&lt;/div&gt;" style="text;strokeColor=none;fillColor=none;align=left;verticalAlign=top;spacingLeft=4;spacingRight=4;overflow=hidden;rotatable=0;points=[[0,0.5],[1,0.5]];portConstraint=eastwest;whiteSpace=wrap;html=1;" vertex="1" parent="NZKE09MTLLeni8Bkx__W-62">
          <mxGeometry y="118" width="210" height="92" as="geometry" />
        </mxCell>
        <mxCell id="NZKE09MTLLeni8Bkx__W-66" value="Spring Framework" style="html=1;whiteSpace=wrap;" vertex="1" parent="1">
          <mxGeometry x="130" y="680" width="110" height="50" as="geometry" />
        </mxCell>
        <mxCell id="NZKE09MTLLeni8Bkx__W-67" value="JOptionPane" style="html=1;whiteSpace=wrap;" vertex="1" parent="1">
          <mxGeometry x="635" y="580" width="110" height="50" as="geometry" />
        </mxCell>
        <mxCell id="NZKE09MTLLeni8Bkx__W-68" value="Hangman Images" style="html=1;whiteSpace=wrap;" vertex="1" parent="1">
          <mxGeometry x="540" y="1420" width="110" height="50" as="geometry" />
        </mxCell>
        <mxCell id="NZKE09MTLLeni8Bkx__W-69" value="Game Over Handler" style="html=1;whiteSpace=wrap;" vertex="1" parent="1">
          <mxGeometry x="260" y="340" width="110" height="50" as="geometry" />
        </mxCell>
        <mxCell id="NZKE09MTLLeni8Bkx__W-70" value="User Input Handler" style="html=1;whiteSpace=wrap;" vertex="1" parent="1">
          <mxGeometry x="90" y="150" width="110" height="50" as="geometry" />
        </mxCell>
        <mxCell id="NZKE09MTLLeni8Bkx__W-71" value="Level Up Handler" style="html=1;whiteSpace=wrap;" vertex="1" parent="1">
          <mxGeometry x="620" y="150" width="110" height="50" as="geometry" />
        </mxCell>
        <mxCell id="NZKE09MTLLeni8Bkx__W-72" value="Incorrect Guess Handler" style="html=1;whiteSpace=wrap;" vertex="1" parent="1">
          <mxGeometry x="480" y="150" width="110" height="50" as="geometry" />
        </mxCell>
        <mxCell id="NZKE09MTLLeni8Bkx__W-73" value="Correct Guess Handler" style="html=1;whiteSpace=wrap;" vertex="1" parent="1">
          <mxGeometry x="350" y="150" width="110" height="50" as="geometry" />
        </mxCell>
        <mxCell id="NZKE09MTLLeni8Bkx__W-74" value="Level Manager" style="html=1;whiteSpace=wrap;" vertex="1" parent="1">
          <mxGeometry x="90" y="340" width="110" height="50" as="geometry" />
        </mxCell>
        <mxCell id="NZKE09MTLLeni8Bkx__W-75" value="" style="endArrow=classic;startArrow=classic;html=1;rounded=0;entryX=0.5;entryY=1;entryDx=0;entryDy=0;exitX=0.094;exitY=0.04;exitDx=0;exitDy=0;exitPerimeter=0;" edge="1" parent="1" source="NZKE09MTLLeni8Bkx__W-10" target="NZKE09MTLLeni8Bkx__W-70">
          <mxGeometry width="50" height="50" relative="1" as="geometry">
            <mxPoint x="20" y="300" as="sourcePoint" />
            <mxPoint x="70" y="250" as="targetPoint" />
          </mxGeometry>
        </mxCell>
        <mxCell id="NZKE09MTLLeni8Bkx__W-76" value="" style="endArrow=classic;startArrow=classic;html=1;rounded=0;entryX=0.5;entryY=1;entryDx=0;entryDy=0;exitX=0.285;exitY=0.02;exitDx=0;exitDy=0;exitPerimeter=0;" edge="1" parent="1" source="NZKE09MTLLeni8Bkx__W-10" target="NZKE09MTLLeni8Bkx__W-11">
          <mxGeometry width="50" height="50" relative="1" as="geometry">
            <mxPoint x="253" y="250" as="sourcePoint" />
            <mxPoint x="300" y="210" as="targetPoint" />
          </mxGeometry>
        </mxCell>
        <mxCell id="NZKE09MTLLeni8Bkx__W-77" value="" style="endArrow=classic;startArrow=classic;html=1;rounded=0;entryX=0.5;entryY=1;entryDx=0;entryDy=0;exitX=0.5;exitY=0;exitDx=0;exitDy=0;" edge="1" parent="1" source="NZKE09MTLLeni8Bkx__W-10" target="NZKE09MTLLeni8Bkx__W-73">
          <mxGeometry width="50" height="50" relative="1" as="geometry">
            <mxPoint x="340" y="260" as="sourcePoint" />
            <mxPoint x="390" y="210" as="targetPoint" />
          </mxGeometry>
        </mxCell>
        <mxCell id="NZKE09MTLLeni8Bkx__W-78" value="" style="endArrow=classic;startArrow=classic;html=1;rounded=0;entryX=0.5;entryY=1;entryDx=0;entryDy=0;exitX=0.697;exitY=-0.02;exitDx=0;exitDy=0;exitPerimeter=0;" edge="1" parent="1" source="NZKE09MTLLeni8Bkx__W-10" target="NZKE09MTLLeni8Bkx__W-72">
          <mxGeometry width="50" height="50" relative="1" as="geometry">
            <mxPoint x="578" y="250" as="sourcePoint" />
            <mxPoint x="520" y="200" as="targetPoint" />
          </mxGeometry>
        </mxCell>
        <mxCell id="NZKE09MTLLeni8Bkx__W-79" value="" style="endArrow=classic;startArrow=classic;html=1;rounded=0;entryX=0.5;entryY=1;entryDx=0;entryDy=0;exitX=0.902;exitY=-0.02;exitDx=0;exitDy=0;exitPerimeter=0;" edge="1" parent="1" source="NZKE09MTLLeni8Bkx__W-10" target="NZKE09MTLLeni8Bkx__W-71">
          <mxGeometry width="50" height="50" relative="1" as="geometry">
            <mxPoint x="650" y="270" as="sourcePoint" />
            <mxPoint x="700" y="220" as="targetPoint" />
          </mxGeometry>
        </mxCell>
        <mxCell id="NZKE09MTLLeni8Bkx__W-80" value="" style="endArrow=classic;startArrow=classic;html=1;rounded=0;entryX=0.082;entryY=1.06;entryDx=0;entryDy=0;entryPerimeter=0;exitX=0.5;exitY=0;exitDx=0;exitDy=0;" edge="1" parent="1" source="NZKE09MTLLeni8Bkx__W-74" target="NZKE09MTLLeni8Bkx__W-10">
          <mxGeometry width="50" height="50" relative="1" as="geometry">
            <mxPoint x="50" y="440" as="sourcePoint" />
            <mxPoint x="100" y="390" as="targetPoint" />
          </mxGeometry>
        </mxCell>
        <mxCell id="NZKE09MTLLeni8Bkx__W-81" value="" style="endArrow=classic;startArrow=classic;html=1;rounded=0;entryX=0.32;entryY=0.98;entryDx=0;entryDy=0;entryPerimeter=0;exitX=0.355;exitY=0.04;exitDx=0;exitDy=0;exitPerimeter=0;" edge="1" parent="1" source="NZKE09MTLLeni8Bkx__W-69" target="NZKE09MTLLeni8Bkx__W-10">
          <mxGeometry width="50" height="50" relative="1" as="geometry">
            <mxPoint x="230" y="520" as="sourcePoint" />
            <mxPoint x="280" y="470" as="targetPoint" />
          </mxGeometry>
        </mxCell>
        <mxCell id="NZKE09MTLLeni8Bkx__W-82" value="" style="endArrow=classic;startArrow=classic;html=1;rounded=0;entryX=0.618;entryY=1.04;entryDx=0;entryDy=0;entryPerimeter=0;exitX=0.5;exitY=0;exitDx=0;exitDy=0;" edge="1" parent="1" source="NZKE09MTLLeni8Bkx__W-17" target="NZKE09MTLLeni8Bkx__W-10">
          <mxGeometry width="50" height="50" relative="1" as="geometry">
            <mxPoint x="410" y="460" as="sourcePoint" />
            <mxPoint x="460" y="410" as="targetPoint" />
          </mxGeometry>
        </mxCell>
        <mxCell id="NZKE09MTLLeni8Bkx__W-83" value="" style="endArrow=classic;startArrow=classic;html=1;rounded=0;entryX=0.909;entryY=0.96;entryDx=0;entryDy=0;entryPerimeter=0;exitX=0.5;exitY=0;exitDx=0;exitDy=0;" edge="1" parent="1" source="NZKE09MTLLeni8Bkx__W-13" target="NZKE09MTLLeni8Bkx__W-10">
          <mxGeometry width="50" height="50" relative="1" as="geometry">
            <mxPoint x="280" y="510" as="sourcePoint" />
            <mxPoint x="670" y="310" as="targetPoint" />
          </mxGeometry>
        </mxCell>
      </root>
    </mxGraphModel>
  </diagram>
</mxfile>
